<svg width="16" height="16" xmlns="http://www.w3.org/2000/svg">

 <g>
  <title>background</title>
  <rect fill="none" id="canvas_background" height="402" width="582" y="-1" x="-1"/>
 </g>
 <g>
  <title>Layer 1</title>
  <g fill-rule="evenodd" fill="none" id="Page-1">
   <circle stroke="null" r="8" cy="8" cx="8.125" fill="#ff0000" id="Oval-98"/>
   <path stroke="null" fill="#FFFFFF" id="Shape" d="m11.89797,4.10096l0,0c-0.13459,-0.13461 -0.35318,-0.13461 -0.48778,0l-3.41019,3.41065l-3.41127,-3.41065c-0.13459,-0.13461 -0.35318,-0.13461 -0.48778,0l0,0c-0.1346,0.13462 -0.1346,0.35324 0,0.48785l3.41126,3.41065l-3.41018,3.41173c-0.1346,0.13461 -0.1346,0.35323 0,0.48785l0,0c0.13459,0.13461 0.35318,0.13461 0.48778,0l3.41019,-3.41173l3.41127,3.41065c0.13459,0.13462 0.35318,0.13462 0.48778,0l0,0c0.1346,-0.13462 0.1346,-0.35323 0,-0.48785l-3.41126,-3.41065l3.41018,-3.41172c0.1346,-0.13462 0.1346,-0.35216 0,-0.48678l0,0z"/>
  </g>
 </g>
</svg>